<svg width="512" height="512" viewBox="0 0 512 512" fill="none" xmlns="http://www.w3.org/2000/svg">
  <defs>
    <linearGradient id="brandGradient" x1="0" y1="0" x2="512" y2="512" gradientUnits="userSpaceOnUse">
      <stop offset="0%" stop-color="#2563EB" />
      <stop offset="100%" stop-color="#9333EA" />
    </linearGradient>
    <filter id="glow" x="-20%" y="-20%" width="140%" height="140%">
      <feGaussianBlur stdDeviation="10" result="blur" />
      <feComposite in="SourceGraphic" in2="blur" operator="over" />
    </filter>
  </defs>

  <path
    d="M256 32C158.8 32 80 110.8 80 208c0 40.3 13.7 78.6 38.3 112L256 480l137.7-160C418.3 286.6 432 248.3 432 208 432 110.8 353.2 32 256 32z"
    fill="url(#brandGradient)"
    stroke="white"
    stroke-width="12"
  />

  <circle cx="256" cy="208" r="96" fill="white" />

  <g clip-path="url(#irisClip)">
    <circle cx="256" cy="208" r="64" fill="url(#brandGradient)" />
    <path d="M256 144v128M192 208h128" stroke="white" stroke-width="8" stroke-opacity="0.5" stroke-linecap="round" />
    <circle cx="256" cy="208" r="40" stroke="white" stroke-width="6" stroke-opacity="0.5" fill="none" />
  </g>

  <path
    d="M236 228l-20-20-12 12 32 32 64-64-12-12-52 52z"
    fill="white"
  />

  <ellipse cx="288" cy="176" rx="24" ry="16" fill="white" fill-opacity="0.3" transform="rotate(-45 288 176)"/>
</svg>
